<?xml version="1.0" standalone="no"?>
<!DOCTYPE svg PUBLIC "-//W3C//DTD SVG 20010904//EN"
 "http://www.w3.org/TR/2001/REC-SVG-20010904/DTD/svg10.dtd">
<svg version="1.0" xmlns="http://www.w3.org/2000/svg"
 width="922.000000pt" height="922.000000pt" viewBox="0 0 922.000000 922.000000"
 preserveAspectRatio="xMidYMid meet">

<g transform="translate(0.000000,922.000000) scale(0.100000,-0.100000)"
fill="#000000" stroke="none">
<path d="M1520 9075 c-8 -2 -55 -9 -105 -15 -554 -75 -1052 -510 -1211 -1058
-64 -221 -59 26 -59 -3142 0 -3116 -3 -2919 55 -3126 101 -356 340 -675 648
-864 35 -21 73 -59 114 -113 208 -272 502 -469 828 -552 180 -46 63 -45 3087
-45 2810 0 2853 0 2968 20 424 73 792 320 1028 692 95 149 156 308 205 533 14
62 16 398 19 2885 3 1996 1 2850 -7 2937 -32 351 -177 666 -425 918 -86 88
-213 190 -293 235 -21 12 -61 54 -92 96 -30 42 -102 122 -160 178 -189 184
-418 313 -665 377 -195 50 -91 49 -3105 48 -1548 -1 -2822 -3 -2830 -4z m6290
-670 c530 -86 955 -491 1086 -1035 18 -71 19 -213 22 -2945 2 -2076 0 -2892
-8 -2950 -79 -560 -518 -1016 -1084 -1123 -85 -16 -282 -17 -2946 -17 -2373 0
-2868 2 -2930 14 -553 101 -965 496 -1092 1049 l-22 97 -4 2800 c-2 1972 0
2834 8 2915 29 310 149 575 360 794 199 207 436 340 695 390 44 8 89 17 100
19 11 3 1303 5 2870 6 2522 1 2861 -1 2945 -14z"/>
<path d="M2490 7373 c-58 -7 -161 -42 -225 -75 -211 -111 -347 -314 -375 -563
-13 -117 -13 -684 0 -800 22 -190 80 -314 204 -439 91 -92 183 -148 306 -187
74 -24 78 -24 535 -24 454 0 461 0 535 23 230 72 407 242 478 462 34 103 42
213 42 560 0 328 -9 464 -33 535 l-14 39 -169 -205 c-94 -112 -336 -404 -538
-649 -203 -245 -376 -453 -386 -463 -16 -17 -32 -1 -364 383 -192 221 -344
405 -340 410 21 18 321 276 336 288 14 11 35 -10 169 -165 85 -97 159 -183
164 -191 8 -10 101 96 413 472 221 267 402 489 402 493 0 12 -76 50 -150 74
-63 22 -81 22 -510 24 -245 2 -461 1 -480 -2z"/>
<path d="M4600 6335 l0 -235 1635 0 1635 0 0 235 0 235 -1635 0 -1635 0 0
-235z"/>
<path d="M1890 4375 l0 -235 2990 0 2990 0 0 235 0 235 -2990 0 -2990 0 0
-235z"/>
<path d="M1860 2465 l0 -235 3015 0 3015 0 0 235 0 235 -3015 0 -3015 0 0
-235z"/>
</g>
</svg>
